<?xml version="1.0" standalone="no"?>
<!DOCTYPE svg PUBLIC "-//W3C//DTD SVG 20010904//EN"
 "http://www.w3.org/TR/2001/REC-SVG-20010904/DTD/svg10.dtd">
<svg version="1.0" xmlns="http://www.w3.org/2000/svg"
 width="260.000000pt" height="260.000000pt" viewBox="0 0 260.000000 260.000000"
 preserveAspectRatio="xMidYMid meet">
<metadata>
Created by potrace 1.11, written by Peter Selinger 2001-2013
</metadata>
<g transform="translate(0.000000,260.000000) scale(0.100000,-0.100000)"
fill="#000000" stroke="none">
<path d="M410 1300 l0 -1299 58 28 c31 15 80 39 107 53 28 14 200 101 382 194
l333 168 440 -223 440 -222 0 1300 0 1301 -880 0 -880 0 0 -1300z m671 770 c6
0 7 6 3 13 -6 9 -5 9 7 0 9 -7 20 -9 29 -3 8 5 19 5 25 1 13 -11 45 -10 45 1
0 4 5 8 11 8 5 0 8 -4 5 -9 -3 -5 2 -8 12 -7 16 1 17 -41 20 -705 2 -619 0
-708 -13 -719 -8 -7 -15 -9 -15 -4 0 11 -91 11 -108 0 -6 -4 -12 -4 -12 1 0
11 -92 9 -109 -2 -11 -6 -12 -4 -5 6 12 18 12 30 2 51 -4 9 -5 19 -1 21 7 5 9
116 3 142 -1 6 -1 15 0 20 7 33 3 121 -5 127 -6 5 -5 8 4 8 11 0 11 3 1 15 -9
10 -9 15 -1 15 11 0 11 27 -2 47 -4 6 -1 13 5 16 10 3 10 7 1 19 -7 8 -10 18
-6 22 11 11 10 90 -2 98 -6 5 -5 8 4 8 11 0 11 3 1 15 -9 10 -9 15 -1 15 11 0
11 27 -2 47 -4 6 -1 13 5 16 10 3 10 7 1 19 -7 8 -10 18 -6 22 11 11 10 90 -2
98 -6 5 -5 8 4 8 11 0 11 3 1 15 -7 8 -8 15 -3 15 13 0 11 73 -2 82 -6 5 -6 8
2 8 11 0 11 7 3 45 -1 6 -1 12 0 15 3 7 6 90 3 90 -11 0 -53 -25 -53 -32 0 -4
-4 -8 -10 -8 -5 0 -30 -13 -56 -30 l-47 -30 -12 23 c-6 12 -30 52 -53 89 -23
38 -37 70 -31 73 5 4 6 11 3 17 -4 6 -3 8 3 5 5 -4 24 4 41 16 16 12 39 28 51
36 11 8 17 19 14 24 -3 6 -1 7 5 4 5 -4 47 20 91 53 45 33 90 62 101 63 11 2
23 7 27 11 4 4 9 2 11 -3 2 -6 8 -11 13 -11z m706 -5 c60 -12 73 -46 76 -193
2 -78 8 -136 15 -144 8 -11 7 -14 -6 -14 -9 -1 -29 -4 -43 -7 -23 -4 -26 -2
-21 15 3 11 1 19 -4 16 -5 -2 -24 -10 -41 -17 -18 -7 -33 -17 -33 -23 0 -5 -4
-7 -9 -4 -5 3 -26 8 -47 11 -57 9 -86 45 -82 104 3 52 26 77 73 82 17 2 36 7
43 12 6 5 12 6 12 1 0 -5 15 -9 32 -8 28 1 33 5 39 31 15 75 -55 119 -111 68
-11 -10 -27 -13 -48 -9 -26 5 -30 9 -22 24 5 9 6 21 2 26 -4 5 -3 6 2 2 5 -4
20 2 34 12 13 11 35 20 48 20 12 0 26 5 29 10 4 7 11 8 18 2 7 -5 27 -13 44
-17z m-237 -7 c0 -5 5 -6 11 -2 8 5 8 1 0 -13 -7 -14 -7 -23 0 -30 7 -7 2 -9
-15 -6 -15 3 -26 1 -26 -6 0 -5 -6 -8 -12 -6 -30 11 -47 -21 -51 -93 -1 -40 0
-72 4 -72 4 0 4 -13 -1 -30 -6 -21 -5 -30 3 -31 8 0 8 -2 1 -5 -6 -3 -9 -16
-6 -29 4 -23 1 -25 -32 -25 -42 0 -38 -18 -36 199 0 79 3 148 6 153 3 4 19 8
35 8 25 0 29 -3 24 -19 -3 -11 -1 -22 5 -26 5 -3 10 -1 10 5 0 6 11 15 25 22
13 6 22 14 20 19 -3 4 4 5 15 2 11 -3 20 -10 20 -15z m350 -428 c0 -5 -6 -7
-14 -4 -8 3 -17 1 -21 -5 -4 -8 -12 -8 -27 0 -16 9 -23 8 -29 -2 -6 -9 -12
-10 -16 -4 -11 14 -40 17 -48 5 -4 -7 -13 -7 -27 1 -16 9 -23 8 -29 -2 -6 -9
-12 -10 -16 -4 -11 14 -40 17 -48 5 -4 -7 -13 -7 -27 1 -16 9 -23 8 -29 -2 -6
-9 -12 -10 -16 -4 -11 14 -40 17 -48 5 -4 -7 -13 -7 -27 1 -16 9 -23 8 -29 -2
-6 -9 -12 -10 -16 -4 -11 14 -40 18 -48 6 -3 -6 -12 -8 -20 -4 -47 18 12 23
260 23 171 0 275 -4 275 -10z"/>
<path d="M1700 1848 c0 -4 -5 -7 -11 -5 -18 4 -32 -28 -25 -57 5 -19 12 -26
21 -22 8 3 15 1 15 -4 0 -16 64 -1 75 18 16 26 23 59 16 68 -8 11 -91 13 -91
2z"/>
</g>
</svg>
